<svg width="64" height="76" viewBox="0 0 64 76" fill="none" xmlns="http://www.w3.org/2000/svg">
<path d="M52.7672 37.2085C51.5435 37.2085 50.4727 37.698 49.5426 38.6782C48.6126 39.6584 48.15 40.8002 48.15 42.1035C48.15 43.5132 48.6126 44.7162 49.5426 45.7147C50.4727 46.7133 51.5643 47.2138 52.8235 47.2138C54.117 47.2138 55.2294 46.7402 56.1582 45.7943C57.087 44.8483 57.5533 43.6833 57.5533 42.3066C57.5533 40.8601 57.087 39.6511 56.1558 38.6733C55.2208 37.6955 54.0913 37.2085 52.7672 37.2085Z" fill="#209F5D"/>
<path d="M63.3269 31.8278C62.1228 20.0089 55.0728 11.2652 52.2361 7.57319C49.6259 4.17485 46.7195 -0.0605319 46.3487 0.000655389C43.9881 0.392254 38.2867 4.69739 22.9336 8.83487C9.22152 12.5281 3.14807 24.2369 1.62818 28.1517C-1.40303 35.9176 -1.36632 67.675 12.0936 67.8634C23.4072 68.0188 29.8539 58.2044 31.9159 56.8974C33.2179 56.0702 32.8887 75.5192 32.8887 75.5192H41.7009C41.7009 75.5192 35.7376 65.9629 36.2565 57.3637C36.4878 53.4612 40.4625 64.295 49.2918 65.2752C58.126 66.2579 66.4597 62.5144 63.3269 31.8278ZM18.9221 48.33H17.45V46.4038C16.7182 47.116 16.3621 47.6753 15.5238 48.0791C14.6819 48.483 13.8142 48.6837 12.8401 48.6837C11.0302 48.6837 9.53724 48.0645 8.32941 46.826C7.12524 45.5851 6.52928 44.0579 6.52928 42.2394C6.52928 40.3891 7.15584 38.8435 8.38448 37.6002C9.61801 36.3569 11.1624 35.7365 13.009 35.7365C13.9586 35.7365 14.7541 35.9298 15.5507 36.3153C16.3413 36.6995 16.7182 37.2576 17.45 37.9808V35.8392H18.9221V48.33ZM26.2695 33.2437C25.5377 33.2584 24.8475 33.4493 24.4559 33.8103C24.0619 34.1737 24.0668 34.7929 24.0668 35.6704V35.8405H26.2707V37.3077H24.0668V48.3312H22.5946V37.3077H21.1249V35.8405H22.5946V35.6704C22.5946 34.3585 22.7574 33.5643 23.4194 32.9365C24.0815 32.3087 24.9246 32.1668 26.2989 32.1668H26.272V33.2437H26.2695ZM40.23 48.33H38.7627V46.4038C38.0236 47.116 37.4215 47.6753 36.5832 48.0791C35.7401 48.483 34.7452 48.6837 33.7735 48.6837C31.9611 48.6837 30.407 48.0645 29.2065 46.826C27.9962 45.5851 27.3733 44.0579 27.3733 42.2394C27.3733 40.3891 27.9766 38.8435 29.2089 37.6002C30.4413 36.3569 31.9783 35.7365 33.8249 35.7365C34.7758 35.7365 35.8208 35.9298 36.6138 36.3153C37.4068 36.7008 38.0224 37.2576 38.7627 37.9808V35.8392H40.23V48.33ZM43.9049 48.33H42.434V32.1656H43.9049V48.33ZM57.3991 46.8211C56.1876 48.0644 54.6763 48.6824 52.8664 48.6824C51.8666 48.6824 51.0381 48.4891 50.239 48.0987C49.4338 47.7096 49.0507 47.1454 48.3153 46.4014V47.2568V49.0973V52.7379H46.8468V35.8392H48.3153V38.0261C49.052 37.3334 49.3236 36.7766 50.157 36.3606C50.9928 35.9469 51.8433 35.7365 52.7844 35.7365C54.6494 35.7365 56.1705 36.3581 57.3991 37.5965C58.6253 38.835 59.2225 40.383 59.2225 42.2407C59.2225 44.0493 58.6057 45.579 57.3991 46.8211Z" fill="#209F5D"/>
<path d="M12.9662 37.2085C11.6421 37.2085 10.5114 37.6955 9.57891 38.6733C8.64642 39.6511 8.1814 40.8601 8.1814 42.3066C8.1814 43.6833 8.64397 44.8471 9.57402 45.7943C10.4992 46.7402 11.6177 47.2138 12.9197 47.2138C14.179 47.2138 15.2742 46.7145 16.2018 45.7147C17.1343 44.7162 17.6042 43.5132 17.6042 42.1035C17.6042 40.7941 17.1343 39.6511 16.2006 38.6733C15.2632 37.6955 14.1826 37.2085 12.9662 37.2085Z" fill="#209F5D"/>
<path d="M33.7761 37.2085C32.4507 37.2085 31.32 37.6955 30.3875 38.6733C29.455 39.6511 28.9888 40.8601 28.9888 42.3066C28.9888 43.6833 29.455 44.8471 30.3851 45.7943C31.3114 46.7402 32.4263 47.2138 33.7296 47.2138C34.9839 47.2138 36.0828 46.7145 37.0153 45.7147C37.9503 44.7162 38.4141 43.5132 38.4141 42.1035C38.4141 40.7941 37.9478 39.6511 37.0092 38.6733C36.0743 37.6955 34.9961 37.2085 33.7761 37.2085Z" fill="#209F5D"/>
</svg>
