<svg xmlns="http://www.w3.org/2000/svg" width="128" height="55.712" viewBox="0 0 128 55.712" id="logo" ><path fill="#F05895" d="M98.044,65.509a18.931,18.931,0,0,1-13.46-5.5l-5.246-5.195a2.316,2.316,0,1,1,3.25-3.3l5.246,5.195a14.367,14.367,0,1,0-.1-20.318l-23.466,23.7a19,19,0,1,1-.128-26.869l5.246,5.195a2.316,2.316,0,0,1-3.25,3.3l-5.246-5.195a14.367,14.367,0,1,0,.1,20.318l23.466-23.7A19,19,0,1,1,98.044,65.509Zm28.635-45.729a2.238,2.238,0,0,0-1.638-.64,2.367,2.367,0,0,0-1.638.665,2.3,2.3,0,0,0-.665,1.638,2.327,2.327,0,0,0,.691,1.638,33.453,33.453,0,0,1,.23,47.341,2.3,2.3,0,0,0-.665,1.638,2.327,2.327,0,0,0,.691,1.638,2.3,2.3,0,0,0,1.638.665,2.327,2.327,0,0,0,1.638-.691,38.087,38.087,0,0,0-.282-53.892Zm-7.319,7.4a2.357,2.357,0,0,0-3.275.026,2.3,2.3,0,0,0-.665,1.638,2.327,2.327,0,0,0,.691,1.638,23.106,23.106,0,0,1,.154,32.652,2.3,2.3,0,0,0-.665,1.638,2.327,2.327,0,0,0,.691,1.638,2.3,2.3,0,0,0,1.638.665,2.327,2.327,0,0,0,1.638-.691,27.677,27.677,0,0,0-.2-39.2ZM21.3,74.21a2.238,2.238,0,0,0,1.638.64,2.367,2.367,0,0,0,1.638-.665,2.3,2.3,0,0,0,.665-1.638,2.327,2.327,0,0,0-.691-1.638,33.454,33.454,0,0,1-.23-47.341,2.3,2.3,0,0,0,.665-1.638,2.327,2.327,0,0,0-.691-1.638,2.3,2.3,0,0,0-1.638-.665,2.327,2.327,0,0,0-1.638.691A38.087,38.087,0,0,0,21.3,74.21Zm7.319-7.37a2.357,2.357,0,0,0,3.275-.026,2.3,2.3,0,0,0,.665-1.638,2.327,2.327,0,0,0-.691-1.638,23.106,23.106,0,0,1-.154-32.652,2.3,2.3,0,0,0,.665-1.638,2.327,2.327,0,0,0-.691-1.638,2.3,2.3,0,0,0-1.638-.665,2.327,2.327,0,0,0-1.638.691,27.677,27.677,0,0,0,.2,39.2Z" transform="translate(-9.99 -19.139)"></path></svg>