<svg width="291" height="43" viewBox="0 0 291 43" fill="none" xmlns="http://www.w3.org/2000/svg">
<g filter="url(#filter0_d)">
<path d="M23.4592 37.4428H6V30.9816H11.6302V7.58604H6V0.884399H24.6728C27.876 0.884399 30.3577 1.13585 32.1178 1.64968C33.8451 2.17444 35.2117 3.21303 36.1956 4.77638C37.1796 6.37253 37.6715 8.23106 37.6715 10.352C37.6715 12.4182 37.2014 14.069 36.2722 15.2935C35.3101 16.5507 34.1403 17.4362 32.7738 17.9173C34.6541 18.6935 36.1082 19.8742 37.1249 21.4922C38.1526 23.143 38.6664 24.9906 38.6664 27.035C38.6664 29.4839 38.087 31.572 36.939 33.2884C35.7802 34.9829 34.2059 36.0981 32.1834 36.6228C30.1827 37.1694 27.2747 37.4428 23.4592 37.4428ZM20.9994 6.7333V15.5777H24.0277C26.083 15.5777 27.4387 15.1732 28.0837 14.3642C28.6959 13.5552 29.002 12.4838 29.002 11.161C29.002 10.024 28.7178 8.99633 28.1602 8.09987C27.6027 7.19247 26.0612 6.74423 23.5467 6.74423H20.9994V6.7333ZM20.9994 22.2247V32.4794H24.312C26.4329 32.4794 27.9525 32.1077 28.8927 31.3533C29.811 30.599 30.2593 29.2762 30.2593 27.3848C30.2593 25.6138 29.8438 24.3019 29.0239 23.4491C28.204 22.6401 26.6187 22.2247 24.2573 22.2247H20.9994Z" fill="white"/>
<path d="M69.3868 37.4428H51.5777V30.9379H56.1912L56.0819 7.82655H50.6266V0.884399H69.3212C70.5784 0.884399 71.7592 0.917197 72.8305 0.97186C73.9129 1.03745 74.8312 1.12491 75.5965 1.23424C76.3617 1.34357 77.0724 1.49662 77.7174 1.69341C79.5212 2.24003 80.9862 3.42074 82.1232 5.24648C83.2602 7.10501 83.8287 9.29151 83.8287 11.8169C83.8287 13.7083 83.4788 15.4247 82.7901 16.9661C82.1013 18.4858 81.183 19.6118 80.0569 20.3334L83.6209 30.9379H88.6936V37.4428H76.165L70.5347 22.5199H64.817V30.9379H69.3868V37.4428ZM64.325 6.88635V15.862H66.271C68.8183 15.862 70.5456 15.7854 71.453 15.6214C72.426 15.4684 73.246 15.0092 73.9129 14.2658C74.5797 13.5661 74.9187 12.6041 74.9187 11.3906C74.9187 10.177 74.5797 9.20405 73.9129 8.47157C73.246 7.72816 72.3932 7.26899 71.3547 7.11594C70.3598 6.96288 68.545 6.87542 65.9103 6.87542H64.325V6.88635Z" fill="white"/>
<path d="M120.004 37.4428H99.167V30.9379H105.3V7.82655H98.839V0.884399H120.321V7.81562H113.915V30.9379H120.004V37.4428Z" fill="white"/>
<path d="M146.625 37.4428H130.543V30.9379H136.469L142.635 7.81562H137.431V0.884399H162.291L162.248 7.81562H156.694L163.407 30.9379H168.425V37.4428H152.026V30.9379H156.749L154.934 24.8266H144.132L142.318 30.9379H146.625V37.4428ZM149.73 7.25806L145.171 20.2896H153.589L149.73 7.25806Z" fill="white"/>
<path d="M211.357 37.4428H179.718V30.9379H184.954V7.82655H179.718V0.884399H200.205V7.81562H193.58V30.9379H203.747V25.4389H211.367V37.4428H211.357Z" fill="white"/>
<path d="M272.109 37.4427H265.013V25.723H272.109C272.262 26.2915 272.065 27.4066 272.349 27.9423C274 31.0581 278.614 33.2118 281.74 30.8722C282.527 30.2819 283.085 29.3198 282.965 28.3468C282.888 27.6909 282.527 27.1005 282.068 26.6304C280.428 24.9577 278.001 23.6021 275.946 22.5198C273.377 21.1751 271.486 20.0053 270.283 19.0214C269.146 18.1249 267.047 16.977 266.238 15.3918C265.44 13.8284 264.631 11.8824 264.631 9.99111C264.631 6.59109 264.707 5.76022 266.478 3.35506C268.064 1.19042 271.332 0.65473 274.087 0.414214C277.979 0.0643733 282.976 1.36534 284.889 3.18014V0.884313H291V11.2921H284.856C284.637 10.5705 284.594 9.1165 283.992 8.48242C281.03 5.39945 278.439 5.43224 276.788 5.43224C275.487 5.43224 274.044 5.71649 273.082 6.65669C272.131 7.57502 271.562 9.55381 272.338 10.7345C272.776 11.4014 273.596 11.6747 274.251 12.0683C275.017 12.5165 275.771 12.9648 276.536 13.413C279.63 15.195 284.736 17.6985 285.774 18.5185C286.299 18.923 286.813 19.1854 287.524 19.7539C292.017 23.3397 290.497 30.9378 287.086 34.6767C285.118 36.8305 282.648 37.9128 279.652 37.9128C276.875 37.9128 274.361 36.9616 272.109 35.0485V37.4427Z" fill="white"/>
<path d="M222.442 0.939062V7.82655H226.75V30.9379H222.442V37.4646H253.053V25.3077H246.428V30.9379H234.402V22.2247H243.028V15.851H234.348V7.82655H246.494V12.2542H253.053V0.884399L222.442 0.939062Z" fill="white"/>
</g>
<defs>
<filter id="filter0_d" x="0.940828" y="0.357178" width="290.059" height="42.6148" filterUnits="userSpaceOnUse" color-interpolation-filters="sRGB">
<feFlood flood-opacity="0" result="BackgroundImageFix"/>
<feColorMatrix in="SourceAlpha" type="matrix" values="0 0 0 0 0 0 0 0 0 0 0 0 0 0 0 0 0 0 127 0"/>
<feOffset dx="-3.37278" dy="3.37278"/>
<feGaussianBlur stdDeviation="0.843195"/>
<feColorMatrix type="matrix" values="0 0 0 0 0 0 0 0 0 0 0 0 0 0 0 0 0 0 0.25 0"/>
<feBlend mode="normal" in2="BackgroundImageFix" result="effect1_dropShadow"/>
<feBlend mode="normal" in="SourceGraphic" in2="effect1_dropShadow" result="shape"/>
</filter>
</defs>
</svg>
