<svg width="211" height="95" viewBox="0 0 211 95" fill="none" xmlns="http://www.w3.org/2000/svg">
<path d="M124.518 29.5974L125.475 67.5629H147.555L148.106 29.5974H124.518ZM136.309 62.1658C133.869 62.1658 131.889 60.1851 131.889 57.7458C131.889 55.3065 133.869 53.3258 136.309 53.3258C138.748 53.3258 140.729 55.3065 140.729 57.7458C140.729 60.1851 138.748 62.1658 136.309 62.1658ZM136.309 43.3958C133.869 43.3958 131.889 41.4151 131.889 38.9758C131.889 36.5365 133.869 34.5558 136.309 34.5558C138.748 34.5558 140.729 36.5365 140.729 38.9758C140.729 41.4151 138.748 43.3958 136.309 43.3958Z" fill="#536673"/>
<path d="M61.6541 9.07263L62.7507 67.5628H87.9281L88.5529 9.07263H61.6541ZM75.1001 62.1658C72.6608 62.1658 70.6801 60.1851 70.6801 57.7458C70.6801 55.3064 72.6608 53.3258 75.1001 53.3258C77.5394 53.3258 79.5201 55.3064 79.5201 57.7458C79.5201 60.1851 77.5394 62.1658 75.1001 62.1658ZM75.1001 44.3395C72.6608 44.3395 70.6801 42.3589 70.6801 39.9196C70.6801 37.4802 72.6608 35.4996 75.1001 35.4996C77.5394 35.4996 79.5201 37.4802 79.5201 39.9196C79.5201 42.3589 77.5394 44.3395 75.1001 44.3395ZM75.1001 22.9109C72.6608 22.9109 70.6801 20.9302 70.6801 18.4909C70.6801 16.0516 72.6608 14.0709 75.1001 14.0709C77.5394 14.0709 79.5201 16.0516 79.5201 18.4909C79.5201 20.9302 77.5394 22.9109 75.1001 22.9109Z" fill="#E1A72C"/>
<path d="M92.5408 0L93.6375 67.5628H118.815L119.44 0H92.5408ZM105.987 62.1657C103.548 62.1657 101.567 60.1851 101.567 57.7458C101.567 55.3064 103.548 53.3258 105.987 53.3258C108.426 53.3258 110.407 55.3064 110.407 57.7458C110.407 60.1851 108.426 62.1657 105.987 62.1657ZM105.987 44.3395C103.548 44.3395 101.567 42.3588 101.567 39.9195C101.567 37.4802 103.548 35.4995 105.987 35.4995C108.426 35.4995 110.407 37.4802 110.407 39.9195C110.407 42.3588 108.426 44.3395 105.987 44.3395ZM105.987 22.9109C103.548 22.9109 101.567 20.9302 101.567 18.4909C101.567 16.0516 103.548 14.0709 105.987 14.0709C108.426 14.0709 110.407 16.0516 110.407 18.4909C110.407 20.9302 108.426 22.9109 105.987 22.9109ZM105.987 12.7482C103.548 12.7482 101.567 10.7675 101.567 8.3282C101.567 5.8889 103.548 3.90821 105.987 3.90821C108.426 3.90821 110.407 5.8889 110.407 8.3282C110.407 10.7675 108.426 12.7482 105.987 12.7482Z" fill="#C12E38"/>
<path d="M68.2076 85.9806C67.9285 84.8174 67.4632 83.6742 65.9079 83.6742C64.6184 83.6742 64.1731 84.6779 64.1731 85.5884C64.1731 86.8048 64.9042 87.4163 66.2734 88.174C68.2608 89.264 69.1182 90.0749 69.1182 91.7432C69.1182 93.591 67.6094 94.9934 65.4759 94.9934C64.4855 94.9934 63.6214 94.6943 62.9435 94.4151C62.8106 93.9233 62.6112 92.7269 62.4982 91.7764L63.01 91.6369C63.3423 92.8133 64.0668 94.342 65.7882 94.342C66.978 94.342 67.7091 93.4647 67.7091 92.3215C67.7091 90.9655 67.0312 90.4205 65.5756 89.5764C63.8408 88.5728 62.8637 87.7287 62.8637 86.0936C62.8637 84.5316 64.0867 83.0494 66.2734 83.0494C67.1973 83.0494 68.1079 83.3153 68.4602 83.3818C68.5266 84.0132 68.5931 84.7177 68.726 85.861L68.2076 85.9806Z" fill="#536673"/>
<path d="M74.3158 86.8047C76.3829 86.8047 77.9249 88.473 77.9249 90.7461C77.9249 93.5975 75.9376 94.9468 74.3158 94.9468C72.0294 94.9468 70.6403 92.9927 70.6403 91.0253C70.6403 88.1606 72.7406 86.8047 74.3158 86.8047ZM74.1164 87.4029C73.1062 87.4029 72.1956 88.4398 72.1956 90.4803C72.1956 92.7135 73.1194 94.3286 74.482 94.3286C75.5056 94.3286 76.3696 93.5377 76.3696 91.125C76.3696 89.0778 75.572 87.4029 74.1164 87.4029Z" fill="#536673"/>
<path d="M85.4224 93.1588C84.6913 94.1758 83.5879 94.9534 82.5909 94.9534C80.4906 94.9534 79.2477 93.1389 79.2477 91.2579C79.2477 89.8688 79.8126 88.7056 80.9226 87.8083C81.8 87.0905 82.7903 86.8047 83.4417 86.8047C84.1861 86.8047 84.7311 87.0506 84.9837 87.2766C85.2163 87.4693 85.2496 87.5956 85.2496 87.7884C85.2496 88.2138 84.8375 88.5793 84.6514 88.5793C84.5716 88.5793 84.5051 88.5461 84.339 88.4065C83.8272 87.9147 83.2622 87.6687 82.664 87.6687C81.574 87.6687 80.6102 88.6524 80.6102 90.4803C80.5969 92.9262 82.1655 93.7305 83.1293 93.7305C83.8272 93.7305 84.3855 93.5377 85.1499 92.76L85.4224 93.1588Z" fill="#536673"/>
<path d="M86.313 94.7407V94.2489C87.3565 94.1425 87.4695 94.0561 87.4695 92.8598V89.2373C87.4695 88.1473 87.4163 88.0742 86.426 87.9014V87.476C87.29 87.3165 88.0677 87.0905 88.7789 86.7715C88.7789 87.5092 88.7789 88.247 88.7789 88.9848V92.8531C88.7789 94.0495 88.8919 94.1359 89.9686 94.2422V94.7341H86.313V94.7407ZM88.0345 85.05C87.5692 85.05 87.1571 84.6113 87.1571 84.1195C87.1571 83.5545 87.5692 83.149 88.0478 83.149C88.513 83.149 88.8919 83.5545 88.8919 84.1195C88.8985 84.6113 88.513 85.05 88.0345 85.05Z" fill="#536673"/>
<path d="M96.8279 93.2453C95.7711 94.6544 94.608 94.9535 94.0829 94.9535C92.0623 94.9535 90.8394 93.1921 90.8394 91.1716C90.8394 89.9752 91.2381 88.8652 91.9161 88.0942C92.614 87.27 93.5246 86.8114 94.382 86.8114C95.8243 86.8114 96.9144 88.1274 96.9144 89.5365C96.8944 89.8888 96.8479 90.0483 96.582 90.1148C96.2497 90.1879 94.1294 90.3407 92.162 90.4139C92.1155 92.7734 93.4714 93.7372 94.6479 93.7372C95.3258 93.7372 95.9572 93.4381 96.5687 92.8399L96.8279 93.2453ZM93.9766 87.4761C93.2122 87.4761 92.4678 88.2338 92.2418 89.6561C93.1657 89.6561 94.0962 89.6561 95.0732 89.603C95.3723 89.603 95.472 89.5166 95.472 89.2507C95.4853 88.3202 94.9071 87.4761 93.9766 87.4761Z" fill="#536673"/>
<path d="M106.113 94.2955C105.768 94.3686 104.525 94.5746 103.548 94.9468C103.548 94.5746 103.548 94.1758 103.548 93.8036C103.249 93.9964 102.817 94.2423 102.524 94.435C101.859 94.8405 101.414 94.9468 101.215 94.9468C99.892 94.9468 98.1373 93.5377 98.1373 91.0785C98.1373 88.6325 100.158 86.8047 102.424 86.8047C102.657 86.8047 103.202 86.838 103.548 86.9975V84.412C103.548 83.2887 103.435 83.2488 102.258 83.1491V82.6905C103.089 82.5642 104.246 82.3183 104.857 82.0923C104.857 82.7437 104.857 83.5147 104.857 84.2391V92.7003C104.857 93.6175 104.97 93.7371 105.588 93.7704L106.12 93.8036V94.2955H106.113ZM103.548 88.3866C103.169 87.7685 102.458 87.4893 101.813 87.4893C101.015 87.4893 99.6129 88.0543 99.6129 90.5866C99.6129 92.7136 100.856 93.8368 101.913 93.8568C102.511 93.8568 103.156 93.5377 103.554 93.2254V88.3866H103.548Z" fill="#536673"/>
<path d="M112.135 94.9469C111.889 94.9469 111.524 94.8073 111.357 94.6145C111.145 94.3885 111.045 94.1426 110.959 93.8236C110.294 94.2955 109.483 94.9469 108.971 94.9469C107.795 94.9469 106.951 93.91 106.951 92.7867C106.951 91.9226 107.396 91.3643 108.307 91.0254C109.317 90.6531 110.56 90.2012 110.925 89.8821V89.5299C110.925 88.2803 110.327 87.5625 109.47 87.5625C109.091 87.5625 108.858 87.7552 108.692 87.9679C108.513 88.2138 108.393 88.5993 108.247 89.1111C108.167 89.3903 108.014 89.5166 107.768 89.5166C107.456 89.5166 107.037 89.1643 107.037 88.7456C107.037 88.4996 107.25 88.287 107.582 88.041C108.061 87.6688 109.024 87.0241 109.968 86.8114C110.467 86.8114 110.979 86.9709 111.357 87.2833C111.936 87.8084 112.202 88.4066 112.202 89.3238V92.7202C112.202 93.5311 112.481 93.777 112.78 93.777C112.979 93.777 113.192 93.6906 113.378 93.5843L113.544 94.0761L112.135 94.9469ZM110.925 90.5003C110.56 90.693 109.769 91.0652 109.383 91.238C108.752 91.5371 108.373 91.8695 108.373 92.5208C108.373 93.4514 109.038 93.8768 109.563 93.8768C109.995 93.8768 110.586 93.5976 110.919 93.2453C110.925 92.4145 110.925 91.3245 110.925 90.5003Z" fill="#536673"/>
<path d="M122.218 94.2955C121.872 94.3686 120.629 94.5746 119.652 94.9468C119.652 94.5746 119.652 94.1758 119.652 93.8036C119.353 93.9964 118.921 94.2423 118.629 94.435C117.964 94.8405 117.519 94.9468 117.319 94.9468C115.997 94.9468 114.242 93.5377 114.242 91.0785C114.242 88.6325 116.263 86.8047 118.529 86.8047C118.762 86.8047 119.307 86.838 119.652 86.9975V84.412C119.652 83.2887 119.539 83.2488 118.363 83.1491V82.6905C119.194 82.5642 120.35 82.3183 120.962 82.0923C120.962 82.7437 120.962 83.5147 120.962 84.2391V92.7003C120.962 93.6175 121.075 93.7371 121.693 93.7704L122.225 93.8036V94.2955H122.218ZM119.652 88.3866C119.274 87.7685 118.562 87.4893 117.918 87.4893C117.12 87.4893 115.718 88.0543 115.718 90.5866C115.718 92.7136 116.961 93.8368 118.017 93.8568C118.616 93.8568 119.26 93.5377 119.659 93.2254V88.3866H119.652Z" fill="#536673"/>
<path d="M127.888 94.7408V94.249C129.243 94.0895 129.376 94.023 129.376 92.5275V85.5486C129.376 84.0331 129.243 83.9667 127.888 83.8072V83.3153H132.321V83.8072C130.945 83.9667 130.812 84.0331 130.812 85.5486V92.5275C130.812 94.0429 130.945 94.0895 132.321 94.249V94.7408H127.888Z" fill="#536673"/>
<path d="M137.904 94.7408V94.249C138.861 94.1426 138.961 94.023 138.961 92.8266V89.922C138.961 88.6924 138.549 87.8616 137.452 87.8616C136.774 87.8616 136.129 88.2803 135.618 88.7788V92.893C135.618 94.1094 135.717 94.1426 136.694 94.249V94.7408H133.118V94.249C134.208 94.1227 134.308 94.0562 134.308 92.893V89.2706C134.308 88.1274 134.195 88.0743 133.298 87.9147V87.4561C134.109 87.3165 134.92 87.0839 135.618 86.7516C135.618 87.157 135.618 87.722 135.618 88.1407C135.95 87.8948 136.315 87.6289 136.741 87.3298C137.206 87.0108 137.631 86.8048 138.117 86.8048C139.439 86.8048 140.27 87.8416 140.27 89.5498V92.893C140.27 94.0894 140.37 94.1426 141.327 94.249V94.7408H137.904Z" fill="#536673"/>
<path d="M151.39 94.7408V94.249C152.367 94.1426 152.48 94.0762 152.48 92.8399V89.9021C152.48 88.6525 152.081 87.8616 151.058 87.8616C150.426 87.8616 149.848 88.2338 149.223 88.7788C149.243 88.9915 149.27 89.1976 149.27 89.5365V92.9462C149.27 94.0562 149.416 94.1426 150.326 94.249V94.7408H146.784V94.249C147.807 94.1426 147.96 94.0762 147.96 92.913V89.8888C147.96 88.5861 147.581 87.8682 146.571 87.8682C145.906 87.8682 145.262 88.3401 144.75 88.7855V92.9197C144.75 94.0828 144.863 94.1493 145.807 94.2556V94.7475H142.251V94.2556C143.341 94.1493 143.441 94.0828 143.441 92.9197V89.2773C143.441 88.154 143.374 88.0809 142.45 87.9081V87.4694C143.228 87.3432 144.006 87.1172 144.75 86.7649C144.75 87.1903 144.75 87.7685 144.75 88.1873C145.096 87.9081 145.448 87.609 145.973 87.27C146.385 86.9909 146.751 86.8114 147.282 86.8114C148.08 86.8114 148.758 87.3365 149.084 88.2537C149.549 87.8682 149.974 87.5691 150.393 87.27C150.759 87.0241 151.224 86.8114 151.702 86.8114C152.992 86.8114 153.789 87.7951 153.789 89.5166V92.913C153.789 94.0895 153.889 94.1426 154.833 94.249V94.7408H151.39Z" fill="#536673"/>
<path d="M159.519 86.8047C161.586 86.8047 163.128 88.473 163.128 90.7461C163.128 93.5975 161.14 94.9468 159.519 94.9468C157.232 94.9468 155.843 92.9927 155.843 91.0253C155.843 88.1606 157.943 86.8047 159.519 86.8047ZM159.319 87.4029C158.309 87.4029 157.398 88.4398 157.398 90.4803C157.398 92.7135 158.322 94.3286 159.685 94.3286C160.708 94.3286 161.573 93.5377 161.573 91.125C161.573 89.0778 160.775 87.4029 159.319 87.4029Z" fill="#536673"/>
<path d="M167.681 86.9843C167.96 86.858 168.212 86.8114 168.412 86.8114C170.18 86.8114 171.675 88.4465 171.675 90.5402C171.675 92.913 169.754 94.9735 167.588 94.9535C166.877 94.9535 165.946 94.7807 165.035 94.3221C165.035 93.8635 165.035 93.3916 165.035 92.913V84.4386C165.035 83.3486 164.989 83.2422 163.925 83.1558V82.6972C164.703 82.5908 165.727 82.325 166.345 82.099C166.345 82.7836 166.345 83.4881 166.345 84.1927V87.6024L167.681 86.9843ZM166.338 92.7003C166.338 92.9795 166.358 93.139 166.418 93.3185C166.617 93.7572 167.262 94.2689 168.06 94.2689C169.482 94.2689 170.193 92.9662 170.193 90.9789C170.193 88.9716 169.05 87.7951 167.674 87.7951C167.196 87.7951 166.651 87.9547 166.331 88.1275V92.7003H166.338Z" fill="#536673"/>
<path d="M172.726 94.7407V94.2489C173.769 94.1425 173.882 94.0561 173.882 92.8598V89.2373C173.882 88.1473 173.836 88.0742 172.839 87.9014V87.476C173.696 87.3165 174.48 87.0905 175.191 86.7715C175.191 87.5092 175.191 88.247 175.191 88.9848V92.8531C175.191 94.0495 175.304 94.1359 176.381 94.2422V94.7341H172.726V94.7407ZM174.447 85.05C173.982 85.05 173.57 84.6113 173.57 84.1195C173.57 83.5545 173.982 83.149 174.46 83.149C174.926 83.149 175.304 83.5545 175.304 84.1195C175.311 84.6113 174.932 85.05 174.447 85.05Z" fill="#536673"/>
<path d="M177.079 94.7408V94.249C178.136 94.1427 178.269 94.0562 178.269 92.8931V84.4718C178.269 83.4017 178.189 83.2954 177.126 83.1558V82.6972C178.016 82.5908 179.046 82.3117 179.578 82.099C179.578 82.9232 179.578 83.7673 179.578 84.5981V92.8997C179.578 94.0629 179.678 94.1493 180.755 94.2557V94.7475H177.079V94.7408Z" fill="#536673"/>
<path d="M181.619 94.7407V94.2489C182.662 94.1425 182.775 94.0561 182.775 92.8598V89.2373C182.775 88.1473 182.729 88.0742 181.732 87.9014V87.476C182.589 87.3165 183.373 87.0905 184.085 86.7715C184.085 87.5092 184.085 88.247 184.085 88.9848V92.8531C184.085 94.0495 184.198 94.1359 185.274 94.2422V94.7341H181.619V94.7407ZM183.34 85.05C182.875 85.05 182.463 84.6113 182.463 84.1195C182.463 83.5545 182.875 83.149 183.354 83.149C183.819 83.149 184.198 83.5545 184.198 84.1195C184.198 84.6113 183.819 85.05 183.34 85.05Z" fill="#536673"/>
<path d="M191.349 94.9469C191.103 94.9469 190.738 94.8073 190.572 94.6145C190.359 94.3885 190.259 94.1426 190.173 93.8236C189.508 94.2955 188.697 94.9469 188.186 94.9469C187.009 94.9469 186.165 93.91 186.165 92.7867C186.165 91.9226 186.61 91.3643 187.521 91.0254C188.531 90.6531 189.774 90.2012 190.14 89.8821V89.5299C190.14 88.2803 189.542 87.5625 188.684 87.5625C188.305 87.5625 188.073 87.7552 187.906 87.9679C187.727 88.2138 187.607 88.5993 187.461 89.1111C187.381 89.3903 187.229 89.5166 186.983 89.5166C186.67 89.5166 186.251 89.1643 186.251 88.7456C186.251 88.4996 186.464 88.287 186.796 88.041C187.275 87.6688 188.239 87.0241 189.183 86.8114C189.681 86.8114 190.193 86.9709 190.572 87.2833C191.15 87.8084 191.416 88.4066 191.416 89.3238V92.7202C191.416 93.5311 191.695 93.777 191.994 93.777C192.194 93.777 192.406 93.6906 192.592 93.5843L192.758 94.0761L191.349 94.9469ZM190.14 90.5003C189.774 90.693 188.983 91.0652 188.598 91.238C187.966 91.5371 187.587 91.8695 187.587 92.5208C187.587 93.4514 188.252 93.8768 188.777 93.8768C189.209 93.8768 189.801 93.5976 190.133 93.2453C190.14 92.4145 190.14 91.3245 190.14 90.5003Z" fill="#536673"/>
<path d="M197.258 94.7408H193.45V94.249C194.493 94.1426 194.593 94.0562 194.593 92.913V89.2574C194.593 88.0942 194.526 88.041 193.569 87.9214V87.4827C194.38 87.3431 195.125 87.1305 195.902 86.7649C195.902 87.3431 195.902 88.1208 195.902 88.6991C196.481 87.7818 197.178 86.8181 198.003 86.8181C198.614 86.8181 198.96 87.2235 198.96 87.6622C198.96 88.0676 198.694 88.4531 198.395 88.6326C198.229 88.7389 198.096 88.719 197.963 88.5994C197.717 88.3335 197.517 88.1607 197.218 88.1607C196.873 88.1607 196.261 88.7057 195.896 89.603V92.9064C195.896 94.0695 195.975 94.1559 197.252 94.2623V94.7408H197.258Z" fill="#536673"/>
<path d="M199.724 94.7407V94.2489C200.768 94.1425 200.881 94.0561 200.881 92.8598V89.2373C200.881 88.1473 200.834 88.0742 199.837 87.9014V87.476C200.695 87.3165 201.479 87.0905 202.19 86.7715C202.19 87.5092 202.19 88.247 202.19 88.9848V92.8531C202.19 94.0495 202.303 94.1359 203.38 94.2422V94.7341H199.724V94.7407ZM201.446 85.05C200.98 85.05 200.568 84.6113 200.568 84.1195C200.568 83.5545 200.98 83.149 201.459 83.149C201.924 83.149 202.303 83.5545 202.303 84.1195C202.31 84.6113 201.924 85.05 201.446 85.05Z" fill="#536673"/>
<path d="M209.455 94.9469C209.209 94.9469 208.843 94.8073 208.677 94.6145C208.464 94.3885 208.365 94.1426 208.278 93.8236C207.614 94.2955 206.803 94.9469 206.291 94.9469C205.115 94.9469 204.27 93.91 204.27 92.7867C204.27 91.9226 204.716 91.3643 205.626 91.0254C206.637 90.6531 207.88 90.2012 208.245 89.8821V89.5299C208.245 88.2803 207.647 87.5625 206.789 87.5625C206.411 87.5625 206.178 87.7552 206.012 87.9679C205.832 88.2138 205.713 88.5993 205.566 89.1111C205.487 89.3903 205.334 89.5166 205.088 89.5166C204.776 89.5166 204.357 89.1643 204.357 88.7456C204.357 88.4996 204.569 88.287 204.902 88.041C205.38 87.6688 206.344 87.0241 207.288 86.8114C207.786 86.8114 208.298 86.9709 208.677 87.2833C209.255 87.8084 209.521 88.4066 209.521 89.3238V92.7202C209.521 93.5311 209.8 93.777 210.099 93.777C210.299 93.777 210.512 93.6906 210.698 93.5843L210.864 94.0761L209.455 94.9469ZM208.252 90.5003C207.886 90.693 207.095 91.0652 206.71 91.238C206.078 91.5371 205.699 91.8695 205.699 92.5208C205.699 93.4514 206.364 93.8768 206.889 93.8768C207.321 93.8768 207.913 93.5976 208.245 93.2453C208.252 92.4145 208.252 91.3245 208.252 90.5003Z" fill="#536673"/>
<path d="M11.1929 81.2881C9.85692 81.4609 9.73064 81.5672 9.73064 83.3884V92.0755C9.73064 93.8967 9.87686 93.9632 11.1929 94.1559V94.7608H6.88589V94.1559C8.22186 93.9366 8.34814 93.8967 8.34814 92.0755V87.7419H2.84475V92.0755C2.84475 93.8767 2.97104 93.9366 4.29371 94.1559V94.7608H0V94.1559C1.30274 93.9632 1.44896 93.8967 1.44896 92.0755V83.3884C1.44896 81.5672 1.30274 81.4609 0 81.2881V80.6832H4.29371V81.2881C3.00427 81.4409 2.84475 81.5938 2.84475 83.3884V86.8313H8.3415V83.3884C8.3415 81.5872 8.16204 81.4409 6.87924 81.2881V80.6832H11.1862V81.2881H11.1929Z" fill="#C12E38"/>
<path d="M19.2952 92.8531C18.0124 94.5945 16.6099 94.9601 15.9718 94.9601C13.5259 94.9601 12.0437 92.7866 12.0437 90.2875C12.0437 88.8119 12.5223 87.4427 13.3464 86.4856C14.1906 85.4621 15.2872 84.8971 16.3308 84.8971C18.0722 84.8971 19.3949 86.5255 19.3949 88.2669C19.3749 88.699 19.3151 88.8984 18.9961 88.9848C18.5973 89.0712 16.0317 89.2706 13.6455 89.357C13.5857 92.2682 15.2274 93.4646 16.6498 93.4646C17.474 93.4646 18.2317 93.0924 18.9761 92.3546L19.2952 92.8531ZM15.8456 85.7279C14.9217 85.7279 14.0244 86.6651 13.7386 88.4198C14.8619 88.4198 15.9851 88.4198 17.1616 88.3533C17.5205 88.3533 17.6401 88.247 17.6401 87.9213C17.6734 86.7714 16.9688 85.7279 15.8456 85.7279Z" fill="#C12E38"/>
<path d="M20.3521 94.7607V94.2024C21.6348 94.0827 21.7944 93.983 21.7944 92.6604V83.0627C21.7944 81.8397 21.6947 81.72 20.4119 81.5605V81.0421C21.4953 80.9224 22.7382 80.6034 23.3763 80.3641C23.3763 81.308 23.3763 82.2651 23.3763 83.2089V92.667C23.3763 93.9897 23.4959 94.0894 24.7986 94.209V94.7673H20.3521V94.7607Z" fill="#C12E38"/>
<path d="M34.7485 85.4954C33.6651 85.6482 33.5256 85.821 33.0071 87.1371C32.3491 88.8918 31.2059 91.803 30.1624 94.7607H29.5841C28.74 92.2417 27.7629 89.6362 26.8191 87.0706C26.3605 85.8011 26.201 85.6682 25.1575 85.4954V84.9038H29.2451V85.4954C28.1418 85.6482 28.1019 85.8011 28.421 86.7449C28.9195 88.2537 29.7636 90.58 30.3219 92.1154C31.0464 90.1679 31.7044 88.3667 32.1431 86.9643C32.482 85.8875 32.4222 85.6482 31.0995 85.4954V84.9038H34.7485V85.4954Z" fill="#C12E38"/>
<path d="M41.2755 95C40.9764 95 40.5311 94.8272 40.3317 94.5879C40.0725 94.3021 39.9528 93.9964 39.8531 93.6042C39.0489 94.1958 38.0718 95 37.4471 95C36.0247 95 35.0011 93.7106 35.0011 92.3148C35.0011 91.2447 35.5395 90.5468 36.6428 90.1347C37.8658 89.6761 39.3679 89.1111 39.8066 88.7189V88.2803C39.8066 86.7316 39.0821 85.8343 38.0452 85.8343C37.5866 85.8343 37.3008 86.0736 37.1014 86.3328C36.8821 86.6386 36.7425 87.1171 36.5631 87.7485C36.4634 88.1008 36.2839 88.247 35.9848 88.247C35.6059 88.247 35.1008 87.8084 35.1008 87.2899C35.1008 86.9842 35.36 86.725 35.7588 86.4192C36.3371 85.9606 37.5002 85.1564 38.6434 84.8905C39.2416 84.8905 39.8664 85.0899 40.325 85.4821C41.0229 86.1334 41.3486 86.8778 41.3486 88.0144V92.2217C41.3486 93.2254 41.6876 93.5311 42.0465 93.5311C42.2858 93.5311 42.545 93.4248 42.771 93.2918L42.9704 93.9033L41.2755 95ZM39.8066 89.4833C39.3679 89.7226 38.4042 90.1812 37.9455 90.4005C37.1812 90.7727 36.7226 91.1848 36.7226 91.9957C36.7226 93.1522 37.5268 93.6773 38.1649 93.6773C38.6833 93.6773 39.4078 93.325 39.8066 92.893C39.8066 91.8628 39.8066 90.5069 39.8066 89.4833Z" fill="#C12E38"/>
<path d="M50.8998 93.4978C50.0158 94.8138 48.8128 94.9999 47.6164 94.9999C45.0707 94.9999 43.5686 92.667 43.5686 90.241C43.5686 88.453 44.2466 86.9575 45.5892 85.801C46.6526 84.8705 47.8557 84.5116 48.6333 84.5116C49.5373 84.5116 50.1953 84.8306 50.4944 85.1231C50.7735 85.3757 50.8134 85.5285 50.8134 85.7811C50.8134 86.3261 50.3149 86.798 50.0889 86.798C49.9892 86.798 49.9095 86.7515 49.7101 86.572C49.0919 85.9406 48.4073 85.6216 47.6895 85.6216C46.3668 85.6216 45.2037 86.8911 45.2037 89.244C45.1837 92.3945 46.4333 93.6307 47.5898 93.7637C48.4539 93.87 49.6436 94.0362 50.5542 92.9927L50.8998 93.4978Z" fill="#C12E38"/>
<path d="M51.704 94.7607V94.1426C52.9668 94.0096 53.1064 93.8967 53.1064 92.3879V87.8217C53.1064 86.4458 53.0466 86.3594 51.8436 86.1334V85.6017C52.8871 85.4023 53.8242 85.1165 54.6883 84.7177C54.6883 85.6482 54.6883 86.5787 54.6883 87.5093V92.3879C54.6883 93.8967 54.8279 94.0096 56.1306 94.1426V94.7607H51.704ZM53.791 83.076C53.2327 83.076 52.7276 82.5775 52.7276 82.0125C52.7276 81.3744 53.2261 80.9092 53.811 80.9092C54.3693 80.9092 54.8345 81.3678 54.8345 82.0125C54.8345 82.5708 54.3693 83.076 53.791 83.076Z" fill="#C12E38"/>
</svg>
